<svg width="16" height="16" viewBox="0 0 16 16" fill="none" xmlns="http://www.w3.org/2000/svg">
<path d="M12.6451 0.183594H3.44937C1.75651 0.183594 0.384155 1.55594 0.384155 3.24881V12.4445C0.384155 14.1374 1.75651 15.5097 3.44937 15.5097H12.6451C14.3379 15.5097 15.7103 14.1374 15.7103 12.4445V3.24888C15.7104 1.55594 14.338 0.183594 12.6451 0.183594ZM11.1124 2.48252H13.4114V4.78145H11.1124V2.48252ZM8.04723 4.78152C9.74009 4.78152 11.1124 6.15387 11.1124 7.84673C11.1124 9.5396 9.74009 10.9119 8.04723 10.9119C6.35436 10.9119 4.98201 9.5396 4.98201 7.84673C4.98201 6.15387 6.35436 4.78152 8.04723 4.78152ZM14.1777 12.4446C14.1777 13.291 13.4915 13.9772 12.6451 13.9772H3.44937C2.60294 13.9772 1.91673 13.291 1.91673 12.4446V7.08038H3.52596C3.06577 9.57766 4.71708 11.9752 7.21436 12.4354C9.71164 12.8957 12.1092 11.2443 12.5694 8.74703C12.6241 8.45016 12.6495 8.14861 12.6451 7.84673C12.6413 7.58957 12.6156 7.33326 12.5684 7.08044H14.1777V12.4446H14.1777Z" fill="#C5C5C5"/>
</svg>
