<svg width="13" height="16" viewBox="0 0 13 16" fill="none" xmlns="http://www.w3.org/2000/svg">
<path d="M6.24689 0.504883C2.22258 0.504883 0.0823975 3.08375 0.0823975 5.89572C0.0823975 7.19984 0.811088 8.82608 1.97754 9.34186C2.15467 9.4217 2.25103 9.38774 2.29049 9.22347C2.32537 9.09865 2.47863 8.49753 2.55297 8.21395C2.57591 8.12309 2.56398 8.04416 2.49056 7.95881C2.10327 7.51095 1.79583 6.69508 1.79583 5.92968C1.79583 3.96845 3.35508 2.06413 6.00828 2.06413C8.30265 2.06413 9.90778 3.55455 9.90778 5.68648C9.90778 8.09556 8.63303 9.76218 6.9765 9.76218C6.05967 9.76218 5.37687 9.04267 5.59346 8.15246C5.85502 7.09246 6.36804 5.95262 6.36804 5.18814C6.36804 4.50258 5.98075 3.93542 5.18965 3.93542C4.2563 3.93542 3.49916 4.85959 3.49916 6.10038C3.49916 6.88872 3.77816 7.42101 3.77816 7.42101C3.77816 7.42101 2.85491 11.1507 2.68329 11.8473C2.39328 13.0266 2.72275 14.9364 2.7512 15.1007C2.76864 15.1916 2.87051 15.22 2.92741 15.1457C3.01827 15.0264 4.13424 13.4341 4.4472 12.2832C4.561 11.8638 5.02813 10.1632 5.02813 10.1632C5.33557 10.7185 6.22303 11.1838 7.16831 11.1838C9.98028 11.1838 12.0122 8.71228 12.0122 5.64518C12.0021 2.70472 9.48562 0.504883 6.24689 0.504883Z" fill="#C5C5C5"/>
</svg>
