<svg width="16" height="14" viewBox="0 0 16 14" fill="none" xmlns="http://www.w3.org/2000/svg">
<path d="M15.928 1.95064C15.337 2.20677 14.7262 2.38408 14.0761 2.46289C14.7459 2.06885 15.2582 1.43839 15.4946 0.670017C14.8641 1.04435 14.1746 1.30048 13.4456 1.45809C12.8545 0.827632 12.0074 0.433594 11.0814 0.433594C9.28849 0.433594 7.85025 1.89154 7.85025 3.66471C7.85025 3.92083 7.86995 4.15725 7.92906 4.39368C5.2496 4.27547 2.88537 2.97514 1.28951 1.02465C0.146802 3.07365 1.42743 4.76801 2.27461 5.33937C1.76236 5.33937 1.25011 5.18175 0.816667 4.94533C0.816667 6.54119 1.93968 7.86121 3.39762 8.15674C3.08239 8.25525 2.37312 8.31436 1.93968 8.21585C2.35342 9.49647 3.55523 10.4422 4.95407 10.4619C3.85076 11.3288 2.2352 12.0183 0.166504 11.8016C1.60474 12.7276 3.29911 13.2595 5.13138 13.2595C11.0814 13.2595 14.3125 8.33406 14.3125 4.07845C14.3125 3.94053 14.3125 3.80262 14.2928 3.66471C14.9626 3.17216 15.5143 2.6008 15.928 1.95064V1.95064Z" fill="#C5C5C5"/>
</svg>
